<svg xmlns="http://www.w3.org/2000/svg" viewBox="0 0 40.21 43.86"><defs><style>.cls-1{fill:#db4965;}.cls-2{fill:#414042;}</style></defs><title>Asset 1</title><g id="Layer_2" data-name="Layer 2"><g id="Layer_1-2" data-name="Layer 1"><polygon class="cls-1" points="21.93 25.59 18.28 25.59 21.93 29.24 21.93 25.59"/><polygon class="cls-1" points="18.28 29.24 14.62 29.24 18.28 32.89 18.28 29.24"/><polygon class="cls-1" points="21.93 10.96 18.28 10.96 21.93 14.62 21.93 10.96"/><polygon class="cls-2" points="21.93 10.97 29.24 18.27 14.62 32.9 14.62 43.86 21.93 43.86 21.93 36.55 40.21 18.27 32.9 10.97 21.93 10.97"/><polygon class="cls-1" points="3.65 3.65 3.65 7.31 7.31 3.65 3.65 3.65"/><polygon class="cls-1" points="7.31 3.65 7.31 7.31 10.97 3.65 7.31 3.65"/><polygon class="cls-1" points="10.97 3.65 10.97 7.31 14.62 3.65 10.97 3.65"/><polygon class="cls-1" points="14.62 3.65 14.62 7.31 18.28 3.65 14.62 3.65"/><polygon class="cls-1" points="18.28 3.65 18.28 7.31 21.93 3.65 18.28 3.65"/><polygon class="cls-1" points="21.93 3.65 21.93 7.31 25.59 3.65 21.93 3.65"/><polygon class="cls-1" points="21.93 7.31 21.93 10.97 25.59 7.31 21.93 7.31"/><polygon class="cls-1" points="25.59 3.65 25.59 7.31 29.24 3.65 25.59 3.65"/><polygon class="cls-1" points="0 7.31 0 10.97 3.65 7.31 0 7.31"/><polygon class="cls-1" points="3.65 7.31 3.65 10.97 7.31 7.31 3.65 7.31"/><polygon class="cls-1" points="7.31 7.31 7.31 10.97 10.97 7.31 7.31 7.31"/><polygon class="cls-1" points="14.62 7.31 14.62 10.97 18.28 7.31 14.62 7.31"/><polygon class="cls-1" points="18.28 7.31 18.28 10.97 21.93 7.31 18.28 7.31"/><polygon class="cls-1" points="29.24 3.65 29.24 7.31 32.9 3.65 29.24 3.65"/><polygon class="cls-1" points="21.93 14.62 18.28 14.62 21.93 18.28 21.93 14.62"/><polygon class="cls-1" points="21.93 18.28 18.28 18.28 21.93 21.93 21.93 18.28"/><polygon class="cls-1" points="21.93 21.93 18.28 21.93 21.93 25.59 21.93 21.93"/><polygon class="cls-1" points="18.28 10.96 14.62 10.96 18.28 14.62 18.28 10.96"/><polygon class="cls-1" points="18.28 14.62 14.62 14.62 18.28 18.28 18.28 14.62"/><polygon class="cls-1" points="18.28 18.28 14.62 18.28 18.28 21.93 18.28 18.28"/><polygon class="cls-1" points="18.28 21.93 14.62 21.93 18.28 25.59 18.28 21.93"/><polygon class="cls-1" points="18.28 25.59 14.62 25.59 18.28 29.24 18.28 25.59"/><polygon class="cls-1" points="32.9 3.65 32.9 7.31 36.55 3.65 32.9 3.65"/><polygon class="cls-1" points="10.97 7.31 10.97 10.97 14.62 7.31 10.97 7.31"/><polygon class="cls-1" points="36.55 3.65 36.55 7.31 40.21 3.65 36.55 3.65"/><polygon class="cls-1" points="25.59 7.31 25.59 10.97 29.24 7.31 25.59 7.31"/><polygon class="cls-1" points="32.9 7.31 29.24 7.31 29.24 10.97 32.9 7.31"/><polygon class="cls-1" points="36.55 7.31 32.9 7.31 32.9 10.97 36.55 7.31"/><polygon class="cls-2" points="14.62 0 14.62 3.65 25.59 3.65 21.93 0 14.62 0"/></g></g></svg>